<mxfile host="app.diagrams.net" modified="2021-08-06T07:26:47.740Z" agent="5.0 (Windows NT 10.0; Win64; x64) AppleWebKit/537.36 (KHTML, like Gecko) Chrome/92.0.4515.107 Safari/537.36 Edg/92.0.902.62" etag="g0Ckok8uUrhrtN7z3paR" version="14.7.7" type="github" pages="2">
  <diagram id="AQ8A16Y2e5UGM0H-IAkx" name="Page-1">
    <mxGraphModel dx="782" dy="436" grid="1" gridSize="10" guides="1" tooltips="1" connect="1" arrows="1" fold="1" page="1" pageScale="1" pageWidth="827" pageHeight="1169" math="0" shadow="0">
      <root>
        <mxCell id="0" />
        <mxCell id="1" parent="0" />
        <mxCell id="01rf1_7VFEJ_MJrwa42o-5" style="edgeStyle=orthogonalEdgeStyle;rounded=0;orthogonalLoop=1;jettySize=auto;html=1;entryX=0;entryY=0.5;entryDx=0;entryDy=0;" parent="1" source="01rf1_7VFEJ_MJrwa42o-1" target="01rf1_7VFEJ_MJrwa42o-4" edge="1">
          <mxGeometry relative="1" as="geometry" />
        </mxCell>
        <mxCell id="01rf1_7VFEJ_MJrwa42o-1" value="发送消息" style="rounded=0;whiteSpace=wrap;html=1;" parent="1" vertex="1">
          <mxGeometry x="120" y="180" width="120" height="60" as="geometry" />
        </mxCell>
        <mxCell id="01rf1_7VFEJ_MJrwa42o-3" style="edgeStyle=orthogonalEdgeStyle;rounded=0;orthogonalLoop=1;jettySize=auto;html=1;" parent="1" source="01rf1_7VFEJ_MJrwa42o-2" target="01rf1_7VFEJ_MJrwa42o-1" edge="1">
          <mxGeometry relative="1" as="geometry" />
        </mxCell>
        <mxCell id="01rf1_7VFEJ_MJrwa42o-2" value="Actor" style="shape=umlActor;verticalLabelPosition=bottom;verticalAlign=top;html=1;outlineConnect=0;" parent="1" vertex="1">
          <mxGeometry x="40" y="180" width="30" height="60" as="geometry" />
        </mxCell>
        <mxCell id="01rf1_7VFEJ_MJrwa42o-8" style="edgeStyle=orthogonalEdgeStyle;rounded=0;orthogonalLoop=1;jettySize=auto;html=1;entryX=0.5;entryY=0;entryDx=0;entryDy=0;" parent="1" source="01rf1_7VFEJ_MJrwa42o-4" target="01rf1_7VFEJ_MJrwa42o-6" edge="1">
          <mxGeometry relative="1" as="geometry" />
        </mxCell>
        <mxCell id="01rf1_7VFEJ_MJrwa42o-10" style="edgeStyle=orthogonalEdgeStyle;rounded=0;orthogonalLoop=1;jettySize=auto;html=1;" parent="1" source="01rf1_7VFEJ_MJrwa42o-4" target="01rf1_7VFEJ_MJrwa42o-7" edge="1">
          <mxGeometry relative="1" as="geometry" />
        </mxCell>
        <mxCell id="01rf1_7VFEJ_MJrwa42o-4" value="队列" style="rounded=0;whiteSpace=wrap;html=1;" parent="1" vertex="1">
          <mxGeometry x="340" y="180" width="120" height="60" as="geometry" />
        </mxCell>
        <mxCell id="01rf1_7VFEJ_MJrwa42o-12" value="" style="edgeStyle=orthogonalEdgeStyle;rounded=0;orthogonalLoop=1;jettySize=auto;html=1;" parent="1" source="01rf1_7VFEJ_MJrwa42o-6" target="01rf1_7VFEJ_MJrwa42o-11" edge="1">
          <mxGeometry relative="1" as="geometry" />
        </mxCell>
        <mxCell id="01rf1_7VFEJ_MJrwa42o-14" value="" style="edgeStyle=orthogonalEdgeStyle;rounded=0;orthogonalLoop=1;jettySize=auto;html=1;" parent="1" source="01rf1_7VFEJ_MJrwa42o-6" target="01rf1_7VFEJ_MJrwa42o-13" edge="1">
          <mxGeometry relative="1" as="geometry" />
        </mxCell>
        <mxCell id="01rf1_7VFEJ_MJrwa42o-6" value="同步任务" style="rounded=1;whiteSpace=wrap;html=1;" parent="1" vertex="1">
          <mxGeometry x="340" y="280" width="120" height="60" as="geometry" />
        </mxCell>
        <mxCell id="01rf1_7VFEJ_MJrwa42o-19" value="" style="edgeStyle=orthogonalEdgeStyle;rounded=0;orthogonalLoop=1;jettySize=auto;html=1;" parent="1" source="01rf1_7VFEJ_MJrwa42o-7" target="01rf1_7VFEJ_MJrwa42o-18" edge="1">
          <mxGeometry relative="1" as="geometry" />
        </mxCell>
        <mxCell id="01rf1_7VFEJ_MJrwa42o-7" value="异步任务" style="rounded=1;whiteSpace=wrap;html=1;" parent="1" vertex="1">
          <mxGeometry x="510" y="270" width="120" height="60" as="geometry" />
        </mxCell>
        <mxCell id="01rf1_7VFEJ_MJrwa42o-11" value="处理消息过程" style="rounded=1;whiteSpace=wrap;html=1;" parent="1" vertex="1">
          <mxGeometry x="140" y="280" width="120" height="60" as="geometry" />
        </mxCell>
        <mxCell id="01rf1_7VFEJ_MJrwa42o-16" value="" style="edgeStyle=orthogonalEdgeStyle;rounded=0;orthogonalLoop=1;jettySize=auto;html=1;" parent="1" source="01rf1_7VFEJ_MJrwa42o-13" target="01rf1_7VFEJ_MJrwa42o-15" edge="1">
          <mxGeometry relative="1" as="geometry" />
        </mxCell>
        <mxCell id="01rf1_7VFEJ_MJrwa42o-13" value="存入缓存" style="rounded=1;whiteSpace=wrap;html=1;" parent="1" vertex="1">
          <mxGeometry x="340" y="390" width="120" height="60" as="geometry" />
        </mxCell>
        <mxCell id="01rf1_7VFEJ_MJrwa42o-15" value="分发" style="rounded=1;whiteSpace=wrap;html=1;" parent="1" vertex="1">
          <mxGeometry x="340" y="525" width="120" height="60" as="geometry" />
        </mxCell>
        <mxCell id="01rf1_7VFEJ_MJrwa42o-18" value="历史消息" style="rounded=1;whiteSpace=wrap;html=1;" parent="1" vertex="1">
          <mxGeometry x="510" y="525" width="120" height="60" as="geometry" />
        </mxCell>
        <mxCell id="01rf1_7VFEJ_MJrwa42o-20" value="Actor" style="shape=umlActor;verticalLabelPosition=bottom;verticalAlign=top;html=1;outlineConnect=0;" parent="1" vertex="1">
          <mxGeometry x="40" y="540" width="30" height="60" as="geometry" />
        </mxCell>
      </root>
    </mxGraphModel>
  </diagram>
  <diagram id="Bt1svqX4yx0DlNZv5XEb" name="Page-2">
    <mxGraphModel dx="782" dy="436" grid="1" gridSize="10" guides="1" tooltips="1" connect="1" arrows="1" fold="1" page="1" pageScale="1" pageWidth="827" pageHeight="1169" math="0" shadow="0">
      <root>
        <mxCell id="OCuIloqGwwmYhPphg-yr-0" />
        <mxCell id="OCuIloqGwwmYhPphg-yr-1" parent="OCuIloqGwwmYhPphg-yr-0" />
        <mxCell id="OCuIloqGwwmYhPphg-yr-2" value="Actor" style="shape=umlActor;verticalLabelPosition=bottom;verticalAlign=top;html=1;outlineConnect=0;" vertex="1" parent="OCuIloqGwwmYhPphg-yr-1">
          <mxGeometry x="40" y="180" width="30" height="60" as="geometry" />
        </mxCell>
        <mxCell id="OCuIloqGwwmYhPphg-yr-6" style="edgeStyle=orthogonalEdgeStyle;rounded=0;orthogonalLoop=1;jettySize=auto;html=1;" edge="1" parent="OCuIloqGwwmYhPphg-yr-1" source="OCuIloqGwwmYhPphg-yr-3" target="OCuIloqGwwmYhPphg-yr-4">
          <mxGeometry relative="1" as="geometry">
            <Array as="points">
              <mxPoint x="191" y="132" />
            </Array>
          </mxGeometry>
        </mxCell>
        <mxCell id="OCuIloqGwwmYhPphg-yr-3" value="" style="verticalLabelPosition=bottom;html=1;verticalAlign=top;strokeWidth=1;align=center;outlineConnect=0;dashed=0;outlineConnect=0;shape=mxgraph.aws3d.elasticLoadBalancing;fillColor=#ECECEC;strokeColor=#5E5E5E;aspect=fixed;" vertex="1" parent="OCuIloqGwwmYhPphg-yr-1">
          <mxGeometry x="150" y="180" width="81.57" height="78.17" as="geometry" />
        </mxCell>
        <mxCell id="OCuIloqGwwmYhPphg-yr-4" value="" style="verticalLabelPosition=bottom;html=1;verticalAlign=top;strokeWidth=1;align=center;outlineConnect=0;dashed=0;outlineConnect=0;shape=mxgraph.aws3d.application_server;fillColor=#ECECEC;strokeColor=#5E5E5E;aspect=fixed;" vertex="1" parent="OCuIloqGwwmYhPphg-yr-1">
          <mxGeometry x="290" y="90.00000000000003" width="83" height="83.67" as="geometry" />
        </mxCell>
        <mxCell id="OCuIloqGwwmYhPphg-yr-5" value="" style="verticalLabelPosition=bottom;html=1;verticalAlign=top;strokeWidth=1;align=center;outlineConnect=0;dashed=0;outlineConnect=0;shape=mxgraph.aws3d.application_server;fillColor=#ECECEC;strokeColor=#5E5E5E;aspect=fixed;" vertex="1" parent="OCuIloqGwwmYhPphg-yr-1">
          <mxGeometry x="290" y="210.00000000000003" width="83" height="83.67" as="geometry" />
        </mxCell>
      </root>
    </mxGraphModel>
  </diagram>
</mxfile>
